<?xml version="1.0" standalone="no"?>
<!DOCTYPE svg PUBLIC "-//W3C//DTD SVG 20010904//EN"
 "http://www.w3.org/TR/2001/REC-SVG-20010904/DTD/svg10.dtd">
<svg version="1.0" xmlns="http://www.w3.org/2000/svg" x="0px" y="0px" style="enable-background:new 0 0 500 78;"
 preserveAspectRatio="xMidYMid meet">
<metadata>
Created by potrace 1.16, written by Peter Selinger 2001-2019
</metadata>
<g id="BACKGROUND" class="st0">
	<rect y="-211" class="st1" width="200" height="200"/>
</g>
<path d="M1393 18506 c-37 -31 -153 -193 -153 -214 0 -8 26 -56 59 -106 32
-50 81 -135 107 -189 72 -145 100 -144 167 8 17 39 57 121 88 183 32 62 56
118 53 125 -7 14 -142 134 -199 176 -60 44 -86 47 -122 17z"/>
<path d="M2512 18503 c-36 -31 -152 -195 -152 -215 0 -11 21 -48 46 -83 25
-35 73 -120 108 -187 52 -102 67 -123 87 -126 35 -4 50 16 118 163 33 72 74
157 92 189 l33 60 -70 64 c-151 141 -215 174 -262 135z"/>
<path d="M3618 18483 c-51 -54 -138 -178 -138 -197 0 -9 25 -53 55 -98 30 -45
78 -128 105 -185 28 -56 59 -107 70 -113 25 -13 51 -1 67 32 7 13 51 104 99
203 l87 179 -74 68 c-90 83 -184 148 -213 148 -12 0 -38 -17 -58 -37z"/>
<path d="M4740 18481 c-50 -52 -140 -181 -140 -200 0 -8 19 -42 43 -75 23 -34
71 -117 107 -185 36 -69 73 -129 83 -135 26 -16 48 2 79 65 113 224 166 344
160 354 -12 21 -154 145 -207 181 -27 19 -58 34 -69 34 -10 0 -36 -17 -56 -39z"/>
<path d="M5878 18498 c-28 -22 -158 -202 -158 -219 0 -9 19 -42 42 -74 23 -32
71 -115 107 -184 69 -131 89 -153 119 -135 23 14 212 395 206 414 -6 18 -148
143 -206 183 -44 29 -84 35 -110 15z"/>
<path d="M6983 18478 c-40 -42 -143 -187 -143 -201 0 -5 26 -51 59 -101 32
-50 81 -137 109 -192 28 -56 58 -104 67 -108 30 -11 54 13 91 92 20 42 63 133
97 201 l61 124 -70 65 c-100 94 -182 152 -213 152 -18 0 -38 -12 -58 -32z"/>
<path d="M8128 18499 c-22 -13 -168 -207 -168 -224 0 -7 21 -44 47 -81 26 -38
77 -125 113 -194 66 -126 84 -145 116 -119 15 12 204 391 204 408 0 12 -152
147 -210 186 -54 37 -74 41 -102 24z"/>
<path d="M1945 18355 c-29 -28 -32 -63 -10 -105 31 -60 107 -70 149 -19 36 42
34 83 -5 120 -41 38 -99 40 -134 4z"/>
<path d="M3079 18367 c-61 -47 -47 -132 26 -163 83 -34 163 64 107 132 -34 42
-99 57 -133 31z"/>
<path d="M4196 18359 c-16 -15 -29 -38 -33 -61 -5 -33 -2 -41 30 -73 45 -45
86 -47 128 -6 39 40 40 87 1 125 -41 38 -91 44 -126 15z"/>
<path d="M5331 18366 c-13 -7 -30 -24 -37 -37 -51 -92 75 -187 150 -113 48 48
28 122 -40 150 -40 17 -43 17 -73 0z"/>
<path d="M6432 18348 c-30 -33 -36 -70 -18 -107 45 -86 176 -61 176 35 0 77
-107 126 -158 72z"/>
<path d="M7567 18359 c-11 -6 -25 -26 -33 -45 -12 -29 -12 -39 -1 -66 18 -42
37 -58 79 -64 49 -8 98 33 98 83 0 45 -14 69 -50 88 -34 17 -67 19 -93 4z"/>

</g>
</svg>
