<?xml version="1.0" encoding="utf-8"?>
<!-- Generator: Adobe Illustrator 24.1.1, SVG Export Plug-In . SVG Version: 6.00 Build 0)  -->
<svg version="1.1" xmlns="http://www.w3.org/2000/svg" xmlns:xlink="http://www.w3.org/1999/xlink" x="0px" y="0px"
	 viewBox="0 0 500 78" style="enable-background:new 0 0 500 78;" xml:space="preserve">
<style type="text/css">
	.st0{display:none;}
	.st1{display:inline;fill:#FFFFFF;}
	.st2{fill:#ccb764;}
</style>
<g id="BACKGROUND" class="st0">
	<rect y="-211" class="st1" width="200" height="200"/>
</g>
<g id="OBJECTS">
	<g>
		<path class="st2" d="M137.59,35.11c-3.74-0.01-7.26-0.02-10.77-0.03c-0.69,0-1.38,0.02-2.07,0.04c-4.17,0.11-4.1,0.13-5.52,4.13
			c-3.05,8.57-7.37,16.35-14.54,22.24c-0.53,0.44-1.04,0.93-1.65,1.25c-1.76,0.92-3.64-0.08-3.74-2.06
			c-0.05-1.01,0.2-2.06,0.46-3.05c2.06-7.77,5.21-14.98,10.85-20.89c0.22-0.23,0.34-0.54,0.66-1.07c-1.46-0.43-2.82-0.26-4.13-0.22
			c-4.72,0.15-9.43,0.37-14.14,0.57c-1.01,0.04-2.03-0.1-2.52,1.23c-2.06,5.62-6.38,9.52-10.66,13.34
			c-4.13,3.69-8.84,6.61-13.86,8.99c-0.62,0.29-1.27,0.54-1.9,0.82c-1.01,0.44-1.78,0-2.46-0.7c-0.78-0.8-0.62-1.65-0.08-2.51
			c4.33-6.91,8.26-14.14,15.09-19.08c0.36-0.26,0.77-0.49,0.8-1.21c-1.21,0-2.41,0.01-3.62-0.01c-8.49-0.19-16.54,1.8-24.55,4.49
			c-7.38,2.48-15.16,2.59-22.89,2.46c-2.3-0.04-4.59-0.27-6.89-0.41c-1.05-0.06-2.06-0.28-3-0.74c-0.74-0.37-1.37-0.95-1.47-1.8
			c-0.12-1,0.71-1.34,1.47-1.64c7.06-2.8,14.14-5.59,21.73-6.58c4.76-0.62,9.39,0.49,13.89,2c1.1,0.37,2.12,0.77,3.33,0.65
			c7.67-0.72,15.34-1.41,22.98-2.1c0.1-0.47-0.12-0.72-0.43-0.89c-8.13-4.33-13.41-11.39-18.16-18.96
			c-0.18-0.29-0.36-0.59-0.49-0.91c-0.78-1.89,0-2.97,1.98-2.67c0.55,0.08,1.1,0.33,1.6,0.59c7.07,3.64,13.93,7.61,20.17,12.58
			c2.98,2.37,5.88,4.87,7.49,8.44c0.49,1.09,1.24,1.21,2.2,1.16c5.04-0.26,10.07-0.51,15.1-0.76c0.26-0.87-0.4-1.04-0.86-1.3
			c-4.91-2.9-8.47-7.01-11.01-12.07c-0.88-1.75-1.8-3.47-2.7-5.21c-0.38-0.73-0.74-1.61-0.2-2.28c0.61-0.77,1.62-0.78,2.56-0.52
			c0.44,0.12,0.88,0.28,1.28,0.49c5.78,3.13,11.43,6.45,16.29,10.94c2.38,2.2,4.5,4.64,6.02,7.51c0.79,1.49,1.74,2.13,3.51,2.08
			c4.45-0.12,8.92-0.02,13.35-0.01c0.2-1.6-0.9-1.64-1.47-1.98c-6.12-3.59-9-9.34-10.7-15.87c-0.54-2.08,0.59-3.12,2.62-2.48
			c0.75,0.24,1.46,0.68,2.12,1.13c7.03,4.84,13.97,9.8,18.36,17.42c0.61,1.06,1.41,1.35,2.54,1.34c3.67-0.03,7.35,0.01,11.38,0.02
			c-0.59-1.52-1.67-1.73-2.5-2.15c-5.77-2.94-9.17-7.89-11.6-13.64c-0.8-1.88,0.01-2.84,2.05-2.63c0.34,0.04,0.69,0.1,1.01,0.23
			c7.58,3.18,14.49,7.24,18.04,15.14c1.01,2.25,2.31,3,4.71,2.91c4.59-0.17,9.19-0.03,14.23-0.02c-1.05-1.47-2.38-1.61-3.43-2.14
			c-5.12-2.59-8.49-6.58-9.89-12.18c-0.3-1.22-0.88-2.54,0.22-3.57c1.33-1.24,2.83-0.61,4.19,0.05c3.98,1.93,7.37,4.7,10.45,7.82
			c2.27,2.3,4.41,4.78,5.8,7.68c0.93,1.94,2.18,2.25,4.06,2.25c10.82-0.03,21.64,0.02,32.46,0.08c2.07,0.01,4.14,0.16,6.21,0.28
			c0.68,0.04,1.37,0.2,2.03,0.36c0.93,0.23,1.31,0.97,1.3,1.81c-0.02,1.06-0.95,1.16-1.74,1.28c-2.16,0.33-4.34,0.52-6.53,0.5
			c-11.05-0.08-22.1-0.13-33.15-0.19c-0.69,0-1.38,0.03-2.07-0.02c-1.24-0.1-1.91,0.3-1.99,1.68c-0.44,7.68-4.5,13.88-8.39,20.15
			c-0.24,0.39-0.5,0.78-0.77,1.14c-0.69,0.92-1.37,2.08-2.73,1.64c-1.52-0.49-1.94-1.78-1.83-3.33c0.52-7.06,1.53-13.97,5.64-20.01
			c0.18-0.26,0.51-0.51,0.04-1.23c-4.79-0.01-9.81-0.02-14.82-0.04c-0.95,0-1.45,0.48-1.75,1.34c-0.61,1.73-1.26,3.46-1.93,5.17
			c-2.07,5.28-4.83,10.17-8.38,14.6c-0.64,0.8-1.38,1.54-2.14,2.23c-0.7,0.64-1.54,1.08-2.51,0.59c-1.01-0.51-1.54-1.35-1.5-2.51
			c0.02-0.46,0.04-0.92,0.12-1.37c1.2-6.63,3-13.01,7.56-18.26c0.34-0.4,0.87-0.76,0.65-1.74c-4.49-0.01-9.05-0.02-13.6-0.04
			c-1.42,0-1.52,1.1-1.82,2.1c-1.1,3.65-2.56,7.15-4.55,10.4c-2.49,4.06-5.43,7.71-9.55,10.25c-0.78,0.48-1.57,0.98-2.43,1.3
			c-2.36,0.87-4.07-0.43-3.47-2.86c1.62-6.51,3.84-12.78,8.48-17.89C135.93,37.27,137.12,36.64,137.59,35.11z M87.33,32.29
			c-5.49-8.07-13.76-12.6-21.94-17.27C70.82,23.17,76.86,30.53,87.33,32.29z M22.56,40.26c9.96,1.11,24.97-0.24,29.08-3.3
			C41.33,33.19,31.92,36.48,22.56,40.26z M130.32,55.05c7.48-4.34,10.97-11.48,13.47-19.3C136.22,39.99,132.56,46.99,130.32,55.05z
			 M98.79,14.9c3.3,8.63,12.79,16.8,18.39,15.99C112.52,24.08,106.25,19.39,98.79,14.9z M86.17,37.52
			c-8.54,3.11-13.9,9.68-18.49,17.09C75.32,50.55,81.9,45.32,86.17,37.52z M116.22,37.27c-5.5,3.27-12.3,14.57-12.92,21.45
			C110.02,52.58,113.89,45.41,116.22,37.27z M144.44,30.33c-4.14-5.95-9.48-10.26-15.3-14.51
			C129.73,22.97,138.25,29.34,144.44,30.33z M177.88,16.28c1.48,6.84,6.52,9.92,12.61,11.91C187.19,23.28,183.04,19.25,177.88,16.28
			z M152,16.92c2.6,5.65,6.82,9.46,12.65,11.46C161.9,22.96,157.56,19.28,152,16.92z M166.85,36.82
			c-4.81,3.26-9.24,11.57-9.23,17.44C161.68,48.75,164.67,43.23,166.85,36.82z M184.93,52.21c3.45-4.74,5.97-9.87,6.61-15.78
			C187.07,40.75,185.56,46.29,184.93,52.21z"/>
		<path class="st2" d="M364.89,38.78c4.6,5.14,6.79,11.42,8.38,17.94c0.59,2.43-1.13,3.72-3.48,2.84c-0.85-0.32-1.64-0.83-2.42-1.31
			c-4.11-2.56-7.03-6.22-9.5-10.3c-1.97-3.27-3.41-6.77-4.5-10.42c-0.3-1-0.39-2.1-1.81-2.11c-4.55-0.01-9.11-0.02-13.6-0.04
			c-0.23,0.98,0.3,1.35,0.64,1.75c4.53,5.27,6.29,11.66,7.46,18.3c0.08,0.45,0.1,0.92,0.12,1.37c0.03,1.15-0.51,2-1.52,2.5
			c-0.97,0.48-1.81,0.04-2.51-0.6c-0.76-0.7-1.49-1.44-2.13-2.25c-3.53-4.45-6.26-9.36-8.3-14.65c-0.66-1.72-1.3-3.44-1.9-5.18
			c-0.3-0.86-0.8-1.35-1.74-1.35c-5.01-0.01-10.03-0.02-14.82-0.04c-0.48,0.71-0.15,0.97,0.03,1.23c4.08,6.07,5.05,12.98,5.53,20.04
			c0.11,1.54-0.32,2.83-1.84,3.32c-1.36,0.43-2.04-0.73-2.72-1.66c-0.27-0.37-0.52-0.76-0.76-1.15c-3.85-6.28-7.87-12.5-8.28-20.19
			c-0.07-1.38-0.74-1.78-1.98-1.69c-0.69,0.05-1.38,0.01-2.07,0.01c-11.05,0-22.1-0.01-33.15,0.01c-2.2,0-4.37-0.2-6.53-0.54
			c-0.79-0.12-1.72-0.23-1.73-1.29c-0.01-0.84,0.38-1.58,1.31-1.8c0.67-0.16,1.35-0.31,2.04-0.35c2.07-0.12,4.14-0.25,6.21-0.25
			c10.82,0,21.64,0.01,32.46,0.1c1.88,0.02,3.13-0.29,4.07-2.23c1.41-2.9,3.56-5.36,5.84-7.65c3.1-3.11,6.5-5.86,10.49-7.77
			c1.36-0.65,2.87-1.27,4.19-0.03c1.1,1.04,0.51,2.35,0.2,3.57c-1.43,5.59-4.82,9.56-9.95,12.12c-1.05,0.52-2.38,0.65-3.44,2.12
			c5.05,0.01,9.65-0.11,14.23,0.09c2.4,0.1,3.7-0.64,4.73-2.89c3.6-7.88,10.53-11.9,18.12-15.04c0.31-0.13,0.67-0.19,1.01-0.23
			c2.04-0.2,2.84,0.76,2.04,2.64c-2.46,5.74-5.88,10.67-11.67,13.58c-0.83,0.41-1.91,0.62-2.51,2.14c4.03,0.01,7.7,0,11.38,0.04
			c1.13,0.01,1.93-0.27,2.54-1.33c4.43-7.6,11.4-12.52,18.46-17.32c0.66-0.45,1.37-0.89,2.12-1.12c2.03-0.63,3.16,0.42,2.61,2.49
			c-1.73,6.52-4.65,12.26-10.78,15.81c-0.58,0.34-1.68,0.37-1.49,1.97c4.43,0.01,8.9-0.07,13.35,0.08c1.76,0.06,2.71-0.57,3.52-2.06
			c1.54-2.86,3.67-5.29,6.07-7.47c4.88-4.46,10.55-7.76,16.35-10.85c0.4-0.21,0.84-0.37,1.28-0.48c0.94-0.25,1.95-0.24,2.56,0.53
			c0.53,0.68,0.16,1.55-0.22,2.28c-0.9,1.73-1.84,3.45-2.72,5.2c-2.56,5.05-6.15,9.14-11.08,12.01c-0.46,0.27-1.12,0.43-0.87,1.3
			c5.02,0.28,10.06,0.56,15.09,0.85c0.96,0.05,1.71-0.06,2.21-1.14c1.63-3.56,4.54-6.04,7.54-8.4c6.26-4.93,13.15-8.86,20.24-12.47
			c0.51-0.26,1.05-0.5,1.6-0.58c1.98-0.29,2.76,0.8,1.96,2.68c-0.13,0.32-0.31,0.62-0.5,0.91c-4.79,7.55-10.11,14.58-18.27,18.87
			c-0.31,0.16-0.53,0.41-0.43,0.89c7.64,0.73,15.31,1.46,22.97,2.22c1.2,0.12,2.23-0.27,3.33-0.63c4.51-1.48,9.15-2.57,13.9-1.92
			c7.58,1.03,14.65,3.86,21.69,6.7c0.76,0.3,1.58,0.65,1.46,1.65c-0.1,0.85-0.73,1.42-1.48,1.79c-0.94,0.46-1.95,0.67-3,0.73
			c-2.3,0.12-4.6,0.34-6.89,0.37c-7.73,0.09-15.51-0.07-22.88-2.58c-7.99-2.73-16.03-4.76-24.53-4.62c-1.2,0.02-2.41,0-3.62-0.01
			c0.03,0.73,0.44,0.95,0.8,1.21c6.8,4.97,10.69,12.23,14.99,19.16c0.54,0.86,0.69,1.71-0.09,2.51c-0.68,0.7-1.46,1.13-2.47,0.69
			c-0.63-0.28-1.27-0.53-1.89-0.83c-5.01-2.4-9.7-5.35-13.81-9.06c-4.26-3.84-8.56-7.76-10.59-13.39c-0.48-1.33-1.5-1.2-2.51-1.25
			c-4.71-0.22-9.43-0.47-14.14-0.65c-1.31-0.05-2.67-0.23-4.13,0.19c0.32,0.53,0.44,0.85,0.66,1.08
			c5.61,5.95,8.71,13.17,10.73,20.95c0.26,0.99,0.5,2.05,0.45,3.06c-0.11,1.98-2,2.97-3.75,2.04c-0.6-0.32-1.11-0.82-1.64-1.26
			c-7.14-5.93-11.41-13.73-14.42-22.32c-1.4-4-1.33-4.03-5.5-4.16c-0.69-0.02-1.38-0.05-2.07-0.05c-3.51-0.01-7.02-0.02-10.77-0.03
			C362.9,37.26,364.09,37.89,364.89,38.78z M434.75,16.02c-8.2,4.62-16.5,9.11-22.03,17.15C423.19,31.47,429.28,24.14,434.75,16.02z
			 M448.39,38.04c4.09,3.08,19.09,4.52,29.06,3.46C468.11,37.67,458.71,34.32,448.39,38.04z M356.24,36.32
			c2.46,7.83,5.91,14.99,13.36,19.37C367.41,47.63,363.79,40.61,356.24,36.32z M382.88,31.61c5.59,0.83,15.13-7.28,18.48-15.89
			C393.86,20.17,387.57,24.83,382.88,31.61z M432.24,55.6c-4.55-7.43-9.87-14.03-18.39-17.19C418.08,46.23,424.63,51.49,432.24,55.6
			z M396.6,59.52c-0.58-6.89-7.32-18.22-12.8-21.52C386.09,46.15,389.92,53.35,396.6,59.52z M371,16.48
			c-5.85,4.22-11.21,8.5-15.38,14.43C361.82,29.95,370.37,23.62,371,16.48z M309.58,28.51c6.1-1.95,11.16-5.01,12.67-11.84
			C317.08,19.62,312.91,23.62,309.58,28.51z M335.42,28.85c5.84-1.97,10.08-5.76,12.71-11.39C342.56,19.78,338.2,23.44,335.42,28.85
			z M342.3,54.76c0.04-5.87-4.34-14.2-9.13-17.49C335.32,43.69,338.28,49.23,342.3,54.76z M308.49,36.75
			c0.61,5.91,3.1,11.05,6.52,15.81C314.41,46.64,312.93,41.09,308.49,36.75z"/>
	</g>
</g>
<g id="DESIGNED_BY_FREEPIK">
</g>
</svg>
