<?xml version="1.0" standalone="no"?>
<!DOCTYPE svg PUBLIC "-//W3C//DTD SVG 20010904//EN"
 "http://www.w3.org/TR/2001/REC-SVG-20010904/DTD/svg10.dtd">
<svg version="1.0" xmlns="http://www.w3.org/2000/svg"
 width="859.000000pt" height="859.000000pt" viewBox="0 0 859.000000 859.000000"
 preserveAspectRatio="xMidYMid meet">
<metadata>
Created by potrace 1.16, written by Peter Selinger 2001-2019
</metadata>
<g transform="translate(0.000000,859.000000) scale(0.100000,-0.100000)"
fill="#fff" stroke="none">
<path d="M2755 6150 c1342 -1342 2442 -2440 2445 -2440 3 0 766 510 1695 1133
l1690 1132 3 1308 2 1307 -4137 0 -4138 0 2440 -2440z"/>
<path d="M1 4202 c-1 -2361 3 -3972 8 -3970 5 2 630 419 1389 928 l1380 925
-23 50 c-12 27 -629 1380 -1370 3005 -741 1625 -1356 2973 -1366 2995 -17 39
-18 -93 -18 -3933z"/>
<path d="M859 7355 c1265 -2777 2288 -5015 2293 -5015 7 0 1642 1092 1660
1109 4 4 -895 909 -1998 2011 l-2005 2005 50 -110z"/>
<path d="M7060 4424 c-833 -558 -1522 -1019 -1530 -1024 -12 -7 144 -169 712
-737 400 -400 729 -725 731 -723 2 3 367 571 811 1263 l806 1257 0 490 c0 270
-3 490 -8 490 -4 0 -689 -457 -1522 -1016z"/>
<path d="M8572 3618 c-5 -7 -296 -460 -647 -1007 l-637 -994 651 -651 651
-651 0 1658 c0 911 -2 1657 -4 1657 -2 0 -8 -6 -14 -12z"/>
<path d="M4234 2532 l-902 -604 48 -102 c25 -55 223 -489 440 -963 l393 -863
757 0 758 0 492 767 c270 421 494 771 496 777 2 6 -353 367 -788 802 l-793
791 -901 -605z"/>
<path d="M1716 845 c-675 -453 -1233 -828 -1239 -834 -8 -8 447 -11 1617 -11
1546 0 1628 1 1624 18 -14 50 -752 1652 -762 1652 -6 -1 -564 -372 -1240 -825z"/>
<path d="M7022 1203 c-43 -63 -753 -1174 -758 -1188 -6 -13 103 -15 1002 -15
l1009 0 -615 615 c-338 338 -616 615 -617 615 -1 0 -10 -12 -21 -27z"/>
</g>
</svg>
