
<svg class="logo-path" width="644" height="146" viewBox="0 0 644 146" fill="none" xmlns="http://www.w3.org/2000/svg">
<mask id="path-1-outside-1" maskUnits="userSpaceOnUse" x="0.600006" y="0.679993" width="643" height="145" fill="black">
<rect fill="white" x="0.600006" y="0.679993" width="643" height="145"/>
<path d="M26.68 143.4C33.04 143.4 40.12 138.12 47.92 127.44C58.72 111.36 68.56 90.36 77.56 64.44L77.8 63.48C81.76 62.28 86.8 61.56 92.92 61.56C96.88 61.56 100.96 61.92 105.16 62.64C98.8 85.32 95.56 103.92 95.56 118.44C95.56 130.92 97.6 138.24 101.56 140.64C104.56 142.44 107.08 143.28 109.12 143.28C113.32 143.28 118.48 141.48 124.84 137.88C125.32 137.52 125.56 137.16 125.56 136.68C125.44 135.72 124.96 135.24 124.24 135.24L123.4 135.48C118.12 138.48 113.68 140.04 110.2 140.04C108.28 140.04 106.72 139.56 105.4 138.6C101.8 136.08 100 132.72 99.88 128.64C99.88 124.56 99.88 122.28 99.88 121.8C99.88 108.36 103.84 89.04 111.64 64.08C113.2 64.56 114.76 65.16 116.2 65.76L116.68 65.88C117.64 65.88 118.12 65.4 118.12 64.32C118.12 63.36 116.32 62.4 112.6 61.32C116.56 49.08 120.4 38.04 124.24 28.32C128.08 18.6 131.08 11.64 133.12 7.67999C133.36 7.07999 133.48 6.47999 133.48 5.99999C133.48 5.15999 133.24 4.43999 132.64 3.71999C131.44 2.39999 130.12 1.67999 128.56 1.67999C127.48 1.67999 126.52 2.15999 125.92 3.23999C123.64 7.67999 120.64 15.12 116.92 25.32C113.2 35.52 109.48 47.04 105.88 59.88C101.32 59.28 96.76 58.92 92.32 58.92C86.68 58.92 82.24 59.4 79 60.24C85.24 42.72 88.6 28.68 88.96 18C88.96 8.15999 86.92 2.87999 82.84 2.03999C82 1.79999 81.04 1.79999 80.08 1.79999C76.36 1.79999 71.8 3.23999 66.28 6.23999C59.44 9.83999 52 13.32 43.72 16.68C35.44 20.16 29.56 21.84 25.84 21.96C22.24 21.96 20.44 21.96 20.32 21.96C13.12 21.96 7.84001 18.72 4.36001 12.24C4.00001 11.64 3.64001 11.4 3.16001 11.28C2.56001 11.28 2.20001 11.4 1.96001 11.64C1.72001 11.88 1.60001 12.12 1.60001 12.48L1.72001 13.2C5.68001 22.56 9.76001 27.36 14.2 27.72C18.52 28.08 21.16 28.2 22.12 28.2C34.24 28.2 50.32 21.84 70.24 9.11999C75.16 6.11999 78.88 4.55999 81.28 4.55999C83.32 4.55999 84.4 6.35999 84.4 9.71999C84.4 18.48 79.12 36.72 68.44 64.44C58.24 69.72 48.64 77.4 39.76 87.48C33.04 95.04 27.64 102.84 23.44 110.64C19.24 118.8 17.08 125.64 17.08 131.16C17.08 132.6 17.2 134.04 17.56 135.36C18.88 140.76 22 143.4 26.68 143.4ZM24.88 139.68C21.52 139.68 19.72 136.8 19.72 131.28C19.72 126.12 21.76 119.64 25.84 111.96C30.04 104.4 35.32 96.84 41.92 89.4C48.4 81.96 55.6 75.6 63.64 70.44C64.72 69.72 65.8 69.12 66.88 68.52C66.64 69 66.4 69.6 66.16 70.32C58.12 91.68 49.96 109.2 41.92 123.12C35.68 133.08 31.36 138.36 29.08 138.84C26.8 139.32 25.48 139.68 24.88 139.68Z"/>
<path d="M130.158 102.84C135.798 102.84 141.918 98.64 148.278 90.12C149.718 88.32 151.998 84.96 155.118 80.28L155.238 79.68C155.238 78.84 154.758 78.36 153.678 78.36C153.198 78.36 152.838 78.6 152.478 79.08C151.638 80.88 149.958 83.4 147.678 86.76C145.278 90.24 142.758 93.12 139.998 95.52C137.238 98.04 134.718 99.24 132.438 99.24C129.438 99 127.878 97.68 127.758 95.16V92.04C127.758 88.56 128.478 84.72 129.798 80.4C133.518 79.56 136.758 77.88 139.638 75.6C144.798 71.52 147.438 67.44 147.438 63.6C147.438 62.76 147.198 61.92 146.718 61.32C145.638 59.76 143.838 59.04 141.438 58.92C139.038 58.92 136.638 59.52 134.358 60.72C129.678 63.6 126.198 67.92 123.678 73.56C121.158 79.2 119.838 84.6 119.838 89.52C119.838 96.48 122.358 100.8 127.398 102.6C128.358 102.84 129.198 102.84 130.158 102.84ZM130.758 77.4C133.038 71.16 135.918 66.6 139.158 63.72C140.598 62.76 141.798 62.28 142.878 62.28C143.958 62.28 144.558 62.76 144.558 63.72C144.558 64.44 144.198 65.52 143.358 66.84C142.158 68.88 140.358 70.8 138.078 72.84C135.798 74.88 133.278 76.44 130.758 77.4Z"/>
<path d="M183.779 103.2C188.339 102.6 192.899 99.72 197.459 94.44C202.019 89.16 205.379 84.36 207.539 80.04L207.659 79.44C207.659 78.72 207.299 78.36 206.459 78.36C205.739 78.36 205.259 78.72 204.899 79.32C203.339 82.32 200.819 86.04 197.339 90.72C193.739 95.4 190.139 98.16 186.419 99.24C184.859 99.24 184.019 97.92 184.019 95.4C184.019 90.6 186.299 81.12 190.739 66.84L192.539 60.24C192.539 59.4 191.219 58.92 188.579 58.92C185.819 58.92 184.259 59.4 184.139 60.24C183.899 61.2 182.699 65.4 180.419 72.96V73.08C175.379 84 169.859 91.92 163.739 97.08C161.699 98.64 160.139 99.48 159.059 99.48C157.499 99.48 156.779 97.92 156.779 94.92C156.779 90 158.459 84.24 161.819 77.52C165.299 70.2 167.939 65.88 169.979 64.44C171.899 63.12 173.339 62.4 174.179 62.4C175.979 62.4 176.819 63.6 176.819 66.12C176.819 69 175.859 71.64 173.819 74.04C173.339 74.64 172.859 75.12 172.379 75.48C171.899 75.84 171.659 76.2 171.659 76.56C171.659 77.64 172.019 78.24 172.859 78.24C173.579 78.24 174.539 77.4 175.859 75.84C178.379 72.96 179.579 69.84 179.579 66.36C179.579 64.08 178.859 62.28 177.299 60.96C175.739 59.64 173.939 59.04 171.899 59.04C165.059 59.04 159.179 64.08 154.139 74.04C151.739 79.68 150.539 85.32 150.539 90.96C150.899 99.12 153.419 103.2 157.979 103.2C160.259 103.2 162.899 102 165.899 99.48C170.099 95.52 174.059 90.48 177.539 84.36C176.819 87.48 176.459 90.36 176.459 92.88C176.459 94.56 176.579 96.12 176.939 97.56C177.539 101.16 179.819 103.08 183.779 103.2Z"/>
<path d="M263.636 103.2C272.396 103.08 283.676 87.72 287.516 80.04L287.636 79.44C287.636 78.72 287.036 78.36 286.436 78.36C285.836 78.36 285.236 78.6 284.876 79.32C282.116 84.48 273.476 97.92 266.276 99.24H265.796C264.356 99.24 263.876 98.04 263.876 95.88C263.876 89.76 268.196 76.68 268.196 67.8C268.196 63.36 266.996 59.88 263.636 59.16L262.436 59.04C253.196 59.04 241.796 81.36 238.436 87.72C239.756 79.32 241.796 68.4 244.316 57.72C251.396 55.32 258.716 45.24 262.076 35.88C263.396 32.16 263.996 28.92 263.996 26.28C263.996 21.12 261.716 18.24 258.236 18.24C254.036 18.24 248.036 22.92 243.356 33.48C239.996 40.92 237.716 49.2 236.636 53.88C231.836 52.2 227.276 48.48 222.596 43.92L228.836 19.68V19.56C228.836 18.6 227.036 18.24 224.996 18.24C222.956 18.24 220.676 18.72 220.436 19.56C220.196 20.76 218.396 27.84 215.996 36.84L213.356 33.84C202.796 21.96 191.396 9.35999 176.876 7.67999C175.916 7.55999 174.956 7.55999 173.996 7.55999C169.196 7.55999 164.636 8.75999 160.796 10.8C155.636 13.44 151.556 17.52 149.156 22.32C147.116 26.16 146.276 29.88 146.276 33.24C146.276 35.76 146.756 38.04 147.596 40.08C148.796 43.08 150.836 45.6 153.356 47.52C155.876 49.32 158.996 50.52 162.116 50.88H163.556C167.636 50.88 171.956 49.56 175.676 46.44C176.156 46.08 176.276 45.72 176.276 45.24C176.276 44.64 175.676 44.04 174.956 44.04C174.596 44.04 174.356 44.16 173.996 44.4C170.996 46.92 167.396 48.12 164.156 48.12L162.716 48C159.956 47.76 157.436 46.8 155.276 45.12C152.996 43.56 151.316 41.4 150.236 38.76C149.516 36.96 149.036 35.04 149.036 32.88C149.036 29.88 149.876 26.76 151.556 23.4C153.716 19.2 157.316 15.6 161.876 13.2C165.356 11.4 169.316 10.44 173.396 10.44C174.356 10.44 175.316 10.44 176.276 10.56C189.836 12 200.876 24.36 211.196 35.88L215.156 40.32C210.956 56.28 205.676 76.56 204.476 81.96C203.636 85.92 202.916 89.88 202.916 93.36C202.916 99 204.716 103.2 210.116 103.2H210.236C216.836 103.08 224.876 94.2 230.156 86.52C228.956 93.48 228.236 98.64 227.876 100.68V100.92C227.876 102.24 230.636 103.2 233.036 103.2C234.716 103.2 236.036 102.84 236.276 101.76C236.396 100.68 236.636 98.76 237.116 96.12C241.556 86.52 254.036 63.12 259.556 63.12C259.916 63.12 260.276 63.12 260.516 63.36C260.996 63.72 261.236 64.56 261.236 65.76C261.236 71.4 256.436 84.72 256.436 93.84C256.436 99.24 258.116 103.2 263.516 103.2H263.636ZM245.156 54.24C245.156 54.12 248.036 43.08 251.396 33.84C254.636 24.6 257.516 21 259.316 21C260.636 21 261.356 22.8 261.356 25.56C261.356 28.32 260.636 31.92 259.076 35.76C255.836 43.56 249.956 52.08 245.156 54.24ZM212.876 99.24H212.396C211.076 99.24 210.476 97.8 210.476 95.4C210.476 92.4 211.316 87.96 212.516 83.28L221.756 47.16C226.436 51.6 230.996 55.08 235.916 56.76L235.676 57.84C233.876 65.28 232.436 72.84 231.356 79.44C228.596 84.6 219.956 97.92 212.876 99.24Z"/>
<path d="M293.635 102.84C299.275 102.84 305.395 98.64 311.755 90.12C313.195 88.32 315.475 84.96 318.595 80.28L318.715 79.68C318.715 78.84 318.235 78.36 317.155 78.36C316.675 78.36 316.315 78.6 315.955 79.08C315.115 80.88 313.435 83.4 311.155 86.76C308.755 90.24 306.235 93.12 303.475 95.52C300.715 98.04 298.195 99.24 295.915 99.24C292.915 99 291.355 97.68 291.235 95.16V92.04C291.235 88.56 291.955 84.72 293.275 80.4C296.995 79.56 300.235 77.88 303.115 75.6C308.275 71.52 310.915 67.44 310.915 63.6C310.915 62.76 310.675 61.92 310.195 61.32C309.115 59.76 307.315 59.04 304.915 58.92C302.515 58.92 300.115 59.52 297.835 60.72C293.155 63.6 289.675 67.92 287.155 73.56C284.635 79.2 283.315 84.6 283.315 89.52C283.315 96.48 285.835 100.8 290.875 102.6C291.835 102.84 292.675 102.84 293.635 102.84ZM294.235 77.4C296.515 71.16 299.395 66.6 302.635 63.72C304.075 62.76 305.275 62.28 306.355 62.28C307.435 62.28 308.035 62.76 308.035 63.72C308.035 64.44 307.675 65.52 306.835 66.84C305.635 68.88 303.835 70.8 301.555 72.84C299.275 74.88 296.755 76.44 294.235 77.4Z"/>
<path d="M322.047 128.88C325.527 128.88 329.127 126.36 332.967 122.16C343.767 110.16 357.807 85.92 360.447 79.8V79.44C360.447 78.72 359.487 78.24 358.767 78.24C358.287 78.24 357.927 78.36 357.807 78.72C356.367 82.32 340.767 109.8 330.927 120.6C328.167 123.6 326.007 125.04 324.687 125.04C323.967 125.04 323.367 124.68 323.127 123.96C323.007 123.6 322.887 123.12 322.887 122.52C322.887 115.68 333.327 95.52 334.647 88.68C334.887 87.72 334.887 86.88 334.887 86.16C334.887 79.44 328.287 78.36 322.887 76.44C326.607 73.08 332.247 63.36 332.247 57C332.247 54.6 331.527 52.68 329.487 51.84C328.887 51.6 328.287 51.48 327.567 51.48C321.207 51.48 312.447 62.76 312.447 71.4C312.447 74.88 313.767 77.88 317.127 79.68C321.567 82.2 325.647 83.88 325.647 87.48V88.2C324.447 94.32 314.847 110.4 314.847 120.48C314.847 123.6 315.687 126.24 318.207 127.68C319.527 128.4 320.727 128.88 322.047 128.88ZM320.007 75.24C317.967 73.92 317.247 71.88 317.247 69.6C317.247 63.24 323.487 54.96 326.967 54.96C327.207 54.96 327.447 54.96 327.687 55.08C328.767 55.56 329.247 56.64 329.247 58.08C329.247 63.12 323.487 72.48 320.007 75.24Z"/>
<path d="M450.297 144.12C454.977 144.12 460.137 143.16 466.017 141.12C474.057 137.88 481.377 133.44 488.097 127.68C494.697 122.04 499.977 116.4 503.817 111C519.177 117.6 531.297 120.84 540.177 120.84C543.417 120.84 546.417 120.48 549.297 119.76C555.657 118.2 560.817 113.76 564.897 106.68L565.017 106.44C565.017 106.2 564.777 105.84 564.417 105.48C564.057 105.12 563.577 104.88 562.857 104.88C562.617 104.88 562.497 105 562.377 105.24C558.657 111.6 554.697 115.32 550.497 116.4C546.177 117.48 542.577 117.96 539.697 117.96C531.417 117.96 520.017 114.84 505.497 108.72C508.737 103.8 513.057 96.24 518.337 86.16C523.497 76.2 527.697 66.36 530.697 56.88C533.817 47.4 535.377 39.48 535.377 33C535.377 30.36 535.137 27.72 534.657 25.32C533.217 17.04 527.457 12.24 517.497 10.92H516.297C512.457 10.92 508.377 11.88 503.937 13.8C493.497 18.24 483.777 27.24 474.537 40.68C477.057 31.2 478.377 23.52 478.377 17.64C478.377 8.16 476.337 2.87999 472.257 2.03999C471.417 1.79999 470.457 1.79999 469.497 1.79999C465.777 1.79999 461.217 3.23999 455.697 6.23999C448.857 9.83999 441.417 13.32 433.137 16.68C424.857 20.16 418.857 21.84 415.137 21.96C411.537 21.96 409.737 21.96 409.617 21.96C402.537 21.96 397.257 18.72 393.777 12.24C393.417 11.64 393.057 11.4 392.577 11.28C391.977 11.28 391.617 11.4 391.377 11.64C391.017 12 390.897 12.24 390.897 12.6L391.017 13.2C394.977 22.56 399.057 27.36 403.497 27.72C407.817 28.08 410.457 28.2 411.417 28.2C423.657 28.2 439.737 21.84 459.657 9.11999C464.577 6.11999 468.297 4.55999 470.697 4.55999C472.737 4.55999 473.817 6.35999 473.817 9.71999C473.817 15.84 471.177 26.64 465.897 42.12C460.257 58.8 454.737 73.32 449.337 85.8C448.977 86.64 448.377 87.84 447.777 89.4C438.297 90.24 431.937 93.48 428.697 99.12C425.457 104.88 423.897 110.28 423.897 115.56C423.897 117.84 424.137 120.12 424.617 122.52C426.297 130.44 429.777 135.96 435.057 139.2C440.337 142.44 445.377 144.12 450.297 144.12ZM448.257 141C445.017 141 442.017 140.28 439.497 138.84C433.377 135.48 429.777 131.4 428.577 126.6C427.377 121.8 426.777 118.2 426.777 115.68C426.777 111.48 427.737 107.4 429.537 103.44C432.537 97.2 438.297 93.48 446.577 92.4C445.017 96.12 444.297 98.28 444.297 98.88C444.297 99.72 444.657 100.44 445.497 101.04C446.577 101.88 447.777 102.24 449.097 102.24C450.777 102.24 451.857 101.76 452.337 100.8C454.257 95.88 455.337 93.24 455.577 92.76C463.857 94.2 475.977 98.64 492.057 105.84L495.657 107.4C485.817 120.96 475.017 130.8 463.377 137.04C457.737 139.68 452.697 141 448.257 141ZM497.217 105.12C488.817 101.4 481.137 98.16 474.057 95.28C467.937 92.88 462.057 91.08 456.657 90C457.497 88.44 459.657 83.04 463.257 74.04C465.777 67.92 468.297 60.96 470.817 53.4C475.377 43.92 480.777 36.12 486.897 29.76C493.017 23.52 499.137 19.08 505.257 16.44C509.217 14.64 512.937 13.8 516.417 13.8C523.017 13.92 526.737 16.08 527.457 20.04C528.057 23.64 528.417 26.4 528.417 28.44C528.417 32.76 527.577 37.8 526.017 43.32C523.737 51.48 520.737 59.76 516.897 68.28C513.057 76.8 509.337 84.48 505.617 91.2C501.897 97.92 499.017 102.6 497.217 105.12Z"/>
<path d="M546.793 103.2C551.353 102.6 555.913 99.72 560.473 94.44C565.033 89.16 568.393 84.36 570.553 80.04L570.673 79.44C570.673 78.72 570.313 78.36 569.473 78.36C568.873 78.36 568.273 78.72 567.913 79.32C566.353 82.32 563.833 86.04 560.353 90.72C556.753 95.4 553.033 98.16 549.313 99.24C547.873 99.24 547.033 97.92 547.033 95.4C547.033 90.48 549.313 81 553.753 66.84C554.953 62.76 555.553 60.6 555.553 60.24C555.553 59.4 554.233 58.92 551.593 58.92C548.953 58.92 547.513 59.4 547.153 60.24C546.793 61.8 546.193 64.2 545.113 67.32C541.393 78.84 539.593 87.36 539.593 92.88C539.593 94.32 539.713 95.64 539.833 96.84C540.313 100.92 542.593 103.08 546.793 103.2ZM553.753 54.12C555.793 54.12 557.233 52.68 558.073 49.92C558.313 49.2 558.433 48.48 558.433 47.88C558.433 45.36 557.353 43.92 555.313 43.68C553.273 43.68 551.833 45.12 550.873 47.88C550.633 48.6 550.633 49.32 550.633 49.92C550.633 52.08 551.353 53.52 552.913 54L553.753 54.12Z"/>
<path d="M576.643 102.84C582.403 102.84 588.403 98.64 594.763 90.12C596.323 88.08 598.603 84.84 601.603 80.28L601.723 79.56C601.723 78.72 601.243 78.36 600.163 78.36C599.683 78.36 599.323 78.6 599.083 79.08C598.123 80.88 596.443 83.4 594.163 86.76C591.763 90.24 589.243 93.12 586.483 95.52C583.723 98.04 581.203 99.24 578.923 99.24C575.803 99.24 574.243 96.96 574.243 92.52C574.243 88.32 575.083 83.88 576.643 79.08C578.323 74.28 580.363 70.08 582.883 66.6C585.403 63.12 587.923 61.44 590.563 61.44C591.763 61.56 592.483 62.16 592.603 63C592.723 63.96 592.843 64.68 592.843 65.04C592.843 68.4 591.403 71.28 588.523 73.68C588.043 74.04 587.803 74.52 587.803 74.88C587.803 75.96 588.163 76.44 588.883 76.44C589.603 76.44 590.683 75.6 592.003 74.04C594.523 71.16 595.723 68.16 595.723 65.04C595.723 60.36 592.963 58.08 587.323 58.08C583.843 58.08 580.723 59.52 577.723 62.28C573.763 66 570.883 70.32 569.083 75.48C567.283 80.64 566.323 85.32 566.323 89.28C566.323 96.48 568.843 100.92 573.883 102.6C574.723 102.72 575.683 102.84 576.643 102.84Z"/>
<path d="M617.778 103.32C621.618 103.32 626.658 100.2 632.538 93.84C636.738 89.04 639.978 84.48 642.378 80.16L642.498 79.8C642.498 78.84 641.898 78.36 640.698 78.36C640.458 78.36 640.098 78.48 639.858 78.84C636.978 83.64 633.618 87.96 630.018 91.8C626.898 95.04 624.258 96.6 622.098 96.6C618.738 96.6 615.738 92.76 613.338 84.96C615.378 84.12 618.018 82.44 621.258 80.16C629.178 74.76 633.138 69.6 633.138 64.92C632.778 61.44 631.818 59.64 630.258 59.28C628.818 59.04 627.858 58.92 627.498 58.92C625.218 58.92 622.578 60.24 619.698 62.76C614.778 67.56 610.698 73.32 607.458 80.04C608.778 72.96 610.218 65.52 612.018 57.72C615.618 56.4 619.098 53.64 622.338 49.44C625.578 45.24 628.098 40.8 629.898 35.88C631.218 32.04 631.818 28.8 631.818 26.16C631.818 24.12 631.458 22.32 630.618 21C629.538 19.08 627.978 18.24 626.178 18.24C620.898 18.24 615.858 23.28 611.058 33.48C607.818 41.28 605.418 48.36 604.098 54.96C601.578 54.24 599.058 52.56 596.418 49.8C596.058 49.44 595.578 49.2 595.218 49.2C594.258 49.2 593.658 49.68 593.658 50.52C593.658 50.88 593.898 51.24 594.138 51.6C597.378 54.84 600.378 57 603.378 57.84C601.218 68.04 598.818 81 596.178 96.84L595.698 100.68C595.698 101.52 596.298 102.12 597.378 102.6C598.578 102.96 599.778 103.2 600.978 103.2C602.658 103.2 603.738 102.72 603.978 101.76L605.418 92.4C605.778 91.32 606.258 90.12 606.858 88.68C608.058 96 609.978 100.2 612.498 101.52C615.018 102.72 616.818 103.32 617.778 103.32ZM612.978 54.12C613.818 49.68 615.858 42.96 619.098 33.84C621.858 26.64 623.778 22.68 624.858 22.08C625.938 21.36 626.778 21.12 627.138 21.12C628.458 21.12 629.178 22.56 629.178 25.68C629.178 28.44 628.338 31.8 626.658 35.76C625.098 39.84 622.938 43.56 620.418 47.04C617.898 50.52 615.378 52.92 612.978 54.12ZM610.458 80.88C614.418 73.44 618.138 68.16 621.618 64.92C624.378 62.76 626.418 61.68 627.498 61.68C628.218 61.68 628.578 62.16 628.578 63.12C628.578 64.44 627.618 66.24 625.698 68.76C621.498 74.4 616.458 78.48 610.458 80.88Z"/>
</mask>
<path d="M26.68 143.4C33.04 143.4 40.12 138.12 47.92 127.44C58.72 111.36 68.56 90.36 77.56 64.44L77.8 63.48C81.76 62.28 86.8 61.56 92.92 61.56C96.88 61.56 100.96 61.92 105.16 62.64C98.8 85.32 95.56 103.92 95.56 118.44C95.56 130.92 97.6 138.24 101.56 140.64C104.56 142.44 107.08 143.28 109.12 143.28C113.32 143.28 118.48 141.48 124.84 137.88C125.32 137.52 125.56 137.16 125.56 136.68C125.44 135.72 124.96 135.24 124.24 135.24L123.4 135.48C118.12 138.48 113.68 140.04 110.2 140.04C108.28 140.04 106.72 139.56 105.4 138.6C101.8 136.08 100 132.72 99.88 128.64C99.88 124.56 99.88 122.28 99.88 121.8C99.88 108.36 103.84 89.04 111.64 64.08C113.2 64.56 114.76 65.16 116.2 65.76L116.68 65.88C117.64 65.88 118.12 65.4 118.12 64.32C118.12 63.36 116.32 62.4 112.6 61.32C116.56 49.08 120.4 38.04 124.24 28.32C128.08 18.6 131.08 11.64 133.12 7.67999C133.36 7.07999 133.48 6.47999 133.48 5.99999C133.48 5.15999 133.24 4.43999 132.64 3.71999C131.44 2.39999 130.12 1.67999 128.56 1.67999C127.48 1.67999 126.52 2.15999 125.92 3.23999C123.64 7.67999 120.64 15.12 116.92 25.32C113.2 35.52 109.48 47.04 105.88 59.88C101.32 59.28 96.76 58.92 92.32 58.92C86.68 58.92 82.24 59.4 79 60.24C85.24 42.72 88.6 28.68 88.96 18C88.96 8.15999 86.92 2.87999 82.84 2.03999C82 1.79999 81.04 1.79999 80.08 1.79999C76.36 1.79999 71.8 3.23999 66.28 6.23999C59.44 9.83999 52 13.32 43.72 16.68C35.44 20.16 29.56 21.84 25.84 21.96C22.24 21.96 20.44 21.96 20.32 21.96C13.12 21.96 7.84001 18.72 4.36001 12.24C4.00001 11.64 3.64001 11.4 3.16001 11.28C2.56001 11.28 2.20001 11.4 1.96001 11.64C1.72001 11.88 1.60001 12.12 1.60001 12.48L1.72001 13.2C5.68001 22.56 9.76001 27.36 14.2 27.72C18.52 28.08 21.16 28.2 22.12 28.2C34.24 28.2 50.32 21.84 70.24 9.11999C75.16 6.11999 78.88 4.55999 81.28 4.55999C83.32 4.55999 84.4 6.35999 84.4 9.71999C84.4 18.48 79.12 36.72 68.44 64.44C58.24 69.72 48.64 77.4 39.76 87.48C33.04 95.04 27.64 102.84 23.44 110.64C19.24 118.8 17.08 125.64 17.08 131.16C17.08 132.6 17.2 134.04 17.56 135.36C18.88 140.76 22 143.4 26.68 143.4ZM24.88 139.68C21.52 139.68 19.72 136.8 19.72 131.28C19.72 126.12 21.76 119.64 25.84 111.96C30.04 104.4 35.32 96.84 41.92 89.4C48.4 81.96 55.6 75.6 63.64 70.44C64.72 69.72 65.8 69.12 66.88 68.52C66.64 69 66.4 69.6 66.16 70.32C58.12 91.68 49.96 109.2 41.92 123.12C35.68 133.08 31.36 138.36 29.08 138.84C26.8 139.32 25.48 139.68 24.88 139.68Z" fill="#3C1947"/>
<path d="M130.158 102.84C135.798 102.84 141.918 98.64 148.278 90.12C149.718 88.32 151.998 84.96 155.118 80.28L155.238 79.68C155.238 78.84 154.758 78.36 153.678 78.36C153.198 78.36 152.838 78.6 152.478 79.08C151.638 80.88 149.958 83.4 147.678 86.76C145.278 90.24 142.758 93.12 139.998 95.52C137.238 98.04 134.718 99.24 132.438 99.24C129.438 99 127.878 97.68 127.758 95.16V92.04C127.758 88.56 128.478 84.72 129.798 80.4C133.518 79.56 136.758 77.88 139.638 75.6C144.798 71.52 147.438 67.44 147.438 63.6C147.438 62.76 147.198 61.92 146.718 61.32C145.638 59.76 143.838 59.04 141.438 58.92C139.038 58.92 136.638 59.52 134.358 60.72C129.678 63.6 126.198 67.92 123.678 73.56C121.158 79.2 119.838 84.6 119.838 89.52C119.838 96.48 122.358 100.8 127.398 102.6C128.358 102.84 129.198 102.84 130.158 102.84ZM130.758 77.4C133.038 71.16 135.918 66.6 139.158 63.72C140.598 62.76 141.798 62.28 142.878 62.28C143.958 62.28 144.558 62.76 144.558 63.72C144.558 64.44 144.198 65.52 143.358 66.84C142.158 68.88 140.358 70.8 138.078 72.84C135.798 74.88 133.278 76.44 130.758 77.4Z" fill="#3C1947"/>
<path d="M183.779 103.2C188.339 102.6 192.899 99.72 197.459 94.44C202.019 89.16 205.379 84.36 207.539 80.04L207.659 79.44C207.659 78.72 207.299 78.36 206.459 78.36C205.739 78.36 205.259 78.72 204.899 79.32C203.339 82.32 200.819 86.04 197.339 90.72C193.739 95.4 190.139 98.16 186.419 99.24C184.859 99.24 184.019 97.92 184.019 95.4C184.019 90.6 186.299 81.12 190.739 66.84L192.539 60.24C192.539 59.4 191.219 58.92 188.579 58.92C185.819 58.92 184.259 59.4 184.139 60.24C183.899 61.2 182.699 65.4 180.419 72.96V73.08C175.379 84 169.859 91.92 163.739 97.08C161.699 98.64 160.139 99.48 159.059 99.48C157.499 99.48 156.779 97.92 156.779 94.92C156.779 90 158.459 84.24 161.819 77.52C165.299 70.2 167.939 65.88 169.979 64.44C171.899 63.12 173.339 62.4 174.179 62.4C175.979 62.4 176.819 63.6 176.819 66.12C176.819 69 175.859 71.64 173.819 74.04C173.339 74.64 172.859 75.12 172.379 75.48C171.899 75.84 171.659 76.2 171.659 76.56C171.659 77.64 172.019 78.24 172.859 78.24C173.579 78.24 174.539 77.4 175.859 75.84C178.379 72.96 179.579 69.84 179.579 66.36C179.579 64.08 178.859 62.28 177.299 60.96C175.739 59.64 173.939 59.04 171.899 59.04C165.059 59.04 159.179 64.08 154.139 74.04C151.739 79.68 150.539 85.32 150.539 90.96C150.899 99.12 153.419 103.2 157.979 103.2C160.259 103.2 162.899 102 165.899 99.48C170.099 95.52 174.059 90.48 177.539 84.36C176.819 87.48 176.459 90.36 176.459 92.88C176.459 94.56 176.579 96.12 176.939 97.56C177.539 101.16 179.819 103.08 183.779 103.2Z" fill="#3C1947"/>
<path d="M263.636 103.2C272.396 103.08 283.676 87.72 287.516 80.04L287.636 79.44C287.636 78.72 287.036 78.36 286.436 78.36C285.836 78.36 285.236 78.6 284.876 79.32C282.116 84.48 273.476 97.92 266.276 99.24H265.796C264.356 99.24 263.876 98.04 263.876 95.88C263.876 89.76 268.196 76.68 268.196 67.8C268.196 63.36 266.996 59.88 263.636 59.16L262.436 59.04C253.196 59.04 241.796 81.36 238.436 87.72C239.756 79.32 241.796 68.4 244.316 57.72C251.396 55.32 258.716 45.24 262.076 35.88C263.396 32.16 263.996 28.92 263.996 26.28C263.996 21.12 261.716 18.24 258.236 18.24C254.036 18.24 248.036 22.92 243.356 33.48C239.996 40.92 237.716 49.2 236.636 53.88C231.836 52.2 227.276 48.48 222.596 43.92L228.836 19.68V19.56C228.836 18.6 227.036 18.24 224.996 18.24C222.956 18.24 220.676 18.72 220.436 19.56C220.196 20.76 218.396 27.84 215.996 36.84L213.356 33.84C202.796 21.96 191.396 9.35999 176.876 7.67999C175.916 7.55999 174.956 7.55999 173.996 7.55999C169.196 7.55999 164.636 8.75999 160.796 10.8C155.636 13.44 151.556 17.52 149.156 22.32C147.116 26.16 146.276 29.88 146.276 33.24C146.276 35.76 146.756 38.04 147.596 40.08C148.796 43.08 150.836 45.6 153.356 47.52C155.876 49.32 158.996 50.52 162.116 50.88H163.556C167.636 50.88 171.956 49.56 175.676 46.44C176.156 46.08 176.276 45.72 176.276 45.24C176.276 44.64 175.676 44.04 174.956 44.04C174.596 44.04 174.356 44.16 173.996 44.4C170.996 46.92 167.396 48.12 164.156 48.12L162.716 48C159.956 47.76 157.436 46.8 155.276 45.12C152.996 43.56 151.316 41.4 150.236 38.76C149.516 36.96 149.036 35.04 149.036 32.88C149.036 29.88 149.876 26.76 151.556 23.4C153.716 19.2 157.316 15.6 161.876 13.2C165.356 11.4 169.316 10.44 173.396 10.44C174.356 10.44 175.316 10.44 176.276 10.56C189.836 12 200.876 24.36 211.196 35.88L215.156 40.32C210.956 56.28 205.676 76.56 204.476 81.96C203.636 85.92 202.916 89.88 202.916 93.36C202.916 99 204.716 103.2 210.116 103.2H210.236C216.836 103.08 224.876 94.2 230.156 86.52C228.956 93.48 228.236 98.64 227.876 100.68V100.92C227.876 102.24 230.636 103.2 233.036 103.2C234.716 103.2 236.036 102.84 236.276 101.76C236.396 100.68 236.636 98.76 237.116 96.12C241.556 86.52 254.036 63.12 259.556 63.12C259.916 63.12 260.276 63.12 260.516 63.36C260.996 63.72 261.236 64.56 261.236 65.76C261.236 71.4 256.436 84.72 256.436 93.84C256.436 99.24 258.116 103.2 263.516 103.2H263.636ZM245.156 54.24C245.156 54.12 248.036 43.08 251.396 33.84C254.636 24.6 257.516 21 259.316 21C260.636 21 261.356 22.8 261.356 25.56C261.356 28.32 260.636 31.92 259.076 35.76C255.836 43.56 249.956 52.08 245.156 54.24ZM212.876 99.24H212.396C211.076 99.24 210.476 97.8 210.476 95.4C210.476 92.4 211.316 87.96 212.516 83.28L221.756 47.16C226.436 51.6 230.996 55.08 235.916 56.76L235.676 57.84C233.876 65.28 232.436 72.84 231.356 79.44C228.596 84.6 219.956 97.92 212.876 99.24Z" fill="#3C1947"/>
<path d="M293.635 102.84C299.275 102.84 305.395 98.64 311.755 90.12C313.195 88.32 315.475 84.96 318.595 80.28L318.715 79.68C318.715 78.84 318.235 78.36 317.155 78.36C316.675 78.36 316.315 78.6 315.955 79.08C315.115 80.88 313.435 83.4 311.155 86.76C308.755 90.24 306.235 93.12 303.475 95.52C300.715 98.04 298.195 99.24 295.915 99.24C292.915 99 291.355 97.68 291.235 95.16V92.04C291.235 88.56 291.955 84.72 293.275 80.4C296.995 79.56 300.235 77.88 303.115 75.6C308.275 71.52 310.915 67.44 310.915 63.6C310.915 62.76 310.675 61.92 310.195 61.32C309.115 59.76 307.315 59.04 304.915 58.92C302.515 58.92 300.115 59.52 297.835 60.72C293.155 63.6 289.675 67.92 287.155 73.56C284.635 79.2 283.315 84.6 283.315 89.52C283.315 96.48 285.835 100.8 290.875 102.6C291.835 102.84 292.675 102.84 293.635 102.84ZM294.235 77.4C296.515 71.16 299.395 66.6 302.635 63.72C304.075 62.76 305.275 62.28 306.355 62.28C307.435 62.28 308.035 62.76 308.035 63.72C308.035 64.44 307.675 65.52 306.835 66.84C305.635 68.88 303.835 70.8 301.555 72.84C299.275 74.88 296.755 76.44 294.235 77.4Z" fill="#3C1947"/>
<path d="M322.047 128.88C325.527 128.88 329.127 126.36 332.967 122.16C343.767 110.16 357.807 85.92 360.447 79.8V79.44C360.447 78.72 359.487 78.24 358.767 78.24C358.287 78.24 357.927 78.36 357.807 78.72C356.367 82.32 340.767 109.8 330.927 120.6C328.167 123.6 326.007 125.04 324.687 125.04C323.967 125.04 323.367 124.68 323.127 123.96C323.007 123.6 322.887 123.12 322.887 122.52C322.887 115.68 333.327 95.52 334.647 88.68C334.887 87.72 334.887 86.88 334.887 86.16C334.887 79.44 328.287 78.36 322.887 76.44C326.607 73.08 332.247 63.36 332.247 57C332.247 54.6 331.527 52.68 329.487 51.84C328.887 51.6 328.287 51.48 327.567 51.48C321.207 51.48 312.447 62.76 312.447 71.4C312.447 74.88 313.767 77.88 317.127 79.68C321.567 82.2 325.647 83.88 325.647 87.48V88.2C324.447 94.32 314.847 110.4 314.847 120.48C314.847 123.6 315.687 126.24 318.207 127.68C319.527 128.4 320.727 128.88 322.047 128.88ZM320.007 75.24C317.967 73.92 317.247 71.88 317.247 69.6C317.247 63.24 323.487 54.96 326.967 54.96C327.207 54.96 327.447 54.96 327.687 55.08C328.767 55.56 329.247 56.64 329.247 58.08C329.247 63.12 323.487 72.48 320.007 75.24Z" fill="#3C1947"/>
<path d="M450.297 144.12C454.977 144.12 460.137 143.16 466.017 141.12C474.057 137.88 481.377 133.44 488.097 127.68C494.697 122.04 499.977 116.4 503.817 111C519.177 117.6 531.297 120.84 540.177 120.84C543.417 120.84 546.417 120.48 549.297 119.76C555.657 118.2 560.817 113.76 564.897 106.68L565.017 106.44C565.017 106.2 564.777 105.84 564.417 105.48C564.057 105.12 563.577 104.88 562.857 104.88C562.617 104.88 562.497 105 562.377 105.24C558.657 111.6 554.697 115.32 550.497 116.4C546.177 117.48 542.577 117.96 539.697 117.96C531.417 117.96 520.017 114.84 505.497 108.72C508.737 103.8 513.057 96.24 518.337 86.16C523.497 76.2 527.697 66.36 530.697 56.88C533.817 47.4 535.377 39.48 535.377 33C535.377 30.36 535.137 27.72 534.657 25.32C533.217 17.04 527.457 12.24 517.497 10.92H516.297C512.457 10.92 508.377 11.88 503.937 13.8C493.497 18.24 483.777 27.24 474.537 40.68C477.057 31.2 478.377 23.52 478.377 17.64C478.377 8.16 476.337 2.87999 472.257 2.03999C471.417 1.79999 470.457 1.79999 469.497 1.79999C465.777 1.79999 461.217 3.23999 455.697 6.23999C448.857 9.83999 441.417 13.32 433.137 16.68C424.857 20.16 418.857 21.84 415.137 21.96C411.537 21.96 409.737 21.96 409.617 21.96C402.537 21.96 397.257 18.72 393.777 12.24C393.417 11.64 393.057 11.4 392.577 11.28C391.977 11.28 391.617 11.4 391.377 11.64C391.017 12 390.897 12.24 390.897 12.6L391.017 13.2C394.977 22.56 399.057 27.36 403.497 27.72C407.817 28.08 410.457 28.2 411.417 28.2C423.657 28.2 439.737 21.84 459.657 9.11999C464.577 6.11999 468.297 4.55999 470.697 4.55999C472.737 4.55999 473.817 6.35999 473.817 9.71999C473.817 15.84 471.177 26.64 465.897 42.12C460.257 58.8 454.737 73.32 449.337 85.8C448.977 86.64 448.377 87.84 447.777 89.4C438.297 90.24 431.937 93.48 428.697 99.12C425.457 104.88 423.897 110.28 423.897 115.56C423.897 117.84 424.137 120.12 424.617 122.52C426.297 130.44 429.777 135.96 435.057 139.2C440.337 142.44 445.377 144.12 450.297 144.12ZM448.257 141C445.017 141 442.017 140.28 439.497 138.84C433.377 135.48 429.777 131.4 428.577 126.6C427.377 121.8 426.777 118.2 426.777 115.68C426.777 111.48 427.737 107.4 429.537 103.44C432.537 97.2 438.297 93.48 446.577 92.4C445.017 96.12 444.297 98.28 444.297 98.88C444.297 99.72 444.657 100.44 445.497 101.04C446.577 101.88 447.777 102.24 449.097 102.24C450.777 102.24 451.857 101.76 452.337 100.8C454.257 95.88 455.337 93.24 455.577 92.76C463.857 94.2 475.977 98.64 492.057 105.84L495.657 107.4C485.817 120.96 475.017 130.8 463.377 137.04C457.737 139.68 452.697 141 448.257 141ZM497.217 105.12C488.817 101.4 481.137 98.16 474.057 95.28C467.937 92.88 462.057 91.08 456.657 90C457.497 88.44 459.657 83.04 463.257 74.04C465.777 67.92 468.297 60.96 470.817 53.4C475.377 43.92 480.777 36.12 486.897 29.76C493.017 23.52 499.137 19.08 505.257 16.44C509.217 14.64 512.937 13.8 516.417 13.8C523.017 13.92 526.737 16.08 527.457 20.04C528.057 23.64 528.417 26.4 528.417 28.44C528.417 32.76 527.577 37.8 526.017 43.32C523.737 51.48 520.737 59.76 516.897 68.28C513.057 76.8 509.337 84.48 505.617 91.2C501.897 97.92 499.017 102.6 497.217 105.12Z" fill="#3C1947"/>
<path d="M546.793 103.2C551.353 102.6 555.913 99.72 560.473 94.44C565.033 89.16 568.393 84.36 570.553 80.04L570.673 79.44C570.673 78.72 570.313 78.36 569.473 78.36C568.873 78.36 568.273 78.72 567.913 79.32C566.353 82.32 563.833 86.04 560.353 90.72C556.753 95.4 553.033 98.16 549.313 99.24C547.873 99.24 547.033 97.92 547.033 95.4C547.033 90.48 549.313 81 553.753 66.84C554.953 62.76 555.553 60.6 555.553 60.24C555.553 59.4 554.233 58.92 551.593 58.92C548.953 58.92 547.513 59.4 547.153 60.24C546.793 61.8 546.193 64.2 545.113 67.32C541.393 78.84 539.593 87.36 539.593 92.88C539.593 94.32 539.713 95.64 539.833 96.84C540.313 100.92 542.593 103.08 546.793 103.2ZM553.753 54.12C555.793 54.12 557.233 52.68 558.073 49.92C558.313 49.2 558.433 48.48 558.433 47.88C558.433 45.36 557.353 43.92 555.313 43.68C553.273 43.68 551.833 45.12 550.873 47.88C550.633 48.6 550.633 49.32 550.633 49.92C550.633 52.08 551.353 53.52 552.913 54L553.753 54.12Z" fill="#3C1947"/>
<path d="M576.643 102.84C582.403 102.84 588.403 98.64 594.763 90.12C596.323 88.08 598.603 84.84 601.603 80.28L601.723 79.56C601.723 78.72 601.243 78.36 600.163 78.36C599.683 78.36 599.323 78.6 599.083 79.08C598.123 80.88 596.443 83.4 594.163 86.76C591.763 90.24 589.243 93.12 586.483 95.52C583.723 98.04 581.203 99.24 578.923 99.24C575.803 99.24 574.243 96.96 574.243 92.52C574.243 88.32 575.083 83.88 576.643 79.08C578.323 74.28 580.363 70.08 582.883 66.6C585.403 63.12 587.923 61.44 590.563 61.44C591.763 61.56 592.483 62.16 592.603 63C592.723 63.96 592.843 64.68 592.843 65.04C592.843 68.4 591.403 71.28 588.523 73.68C588.043 74.04 587.803 74.52 587.803 74.88C587.803 75.96 588.163 76.44 588.883 76.44C589.603 76.44 590.683 75.6 592.003 74.04C594.523 71.16 595.723 68.16 595.723 65.04C595.723 60.36 592.963 58.08 587.323 58.08C583.843 58.08 580.723 59.52 577.723 62.28C573.763 66 570.883 70.32 569.083 75.48C567.283 80.64 566.323 85.32 566.323 89.28C566.323 96.48 568.843 100.92 573.883 102.6C574.723 102.72 575.683 102.84 576.643 102.84Z" fill="#3C1947"/>
<path d="M617.778 103.32C621.618 103.32 626.658 100.2 632.538 93.84C636.738 89.04 639.978 84.48 642.378 80.16L642.498 79.8C642.498 78.84 641.898 78.36 640.698 78.36C640.458 78.36 640.098 78.48 639.858 78.84C636.978 83.64 633.618 87.96 630.018 91.8C626.898 95.04 624.258 96.6 622.098 96.6C618.738 96.6 615.738 92.76 613.338 84.96C615.378 84.12 618.018 82.44 621.258 80.16C629.178 74.76 633.138 69.6 633.138 64.92C632.778 61.44 631.818 59.64 630.258 59.28C628.818 59.04 627.858 58.92 627.498 58.92C625.218 58.92 622.578 60.24 619.698 62.76C614.778 67.56 610.698 73.32 607.458 80.04C608.778 72.96 610.218 65.52 612.018 57.72C615.618 56.4 619.098 53.64 622.338 49.44C625.578 45.24 628.098 40.8 629.898 35.88C631.218 32.04 631.818 28.8 631.818 26.16C631.818 24.12 631.458 22.32 630.618 21C629.538 19.08 627.978 18.24 626.178 18.24C620.898 18.24 615.858 23.28 611.058 33.48C607.818 41.28 605.418 48.36 604.098 54.96C601.578 54.24 599.058 52.56 596.418 49.8C596.058 49.44 595.578 49.2 595.218 49.2C594.258 49.2 593.658 49.68 593.658 50.52C593.658 50.88 593.898 51.24 594.138 51.6C597.378 54.84 600.378 57 603.378 57.84C601.218 68.04 598.818 81 596.178 96.84L595.698 100.68C595.698 101.52 596.298 102.12 597.378 102.6C598.578 102.96 599.778 103.2 600.978 103.2C602.658 103.2 603.738 102.72 603.978 101.76L605.418 92.4C605.778 91.32 606.258 90.12 606.858 88.68C608.058 96 609.978 100.2 612.498 101.52C615.018 102.72 616.818 103.32 617.778 103.32ZM612.978 54.12C613.818 49.68 615.858 42.96 619.098 33.84C621.858 26.64 623.778 22.68 624.858 22.08C625.938 21.36 626.778 21.12 627.138 21.12C628.458 21.12 629.178 22.56 629.178 25.68C629.178 28.44 628.338 31.8 626.658 35.76C625.098 39.84 622.938 43.56 620.418 47.04C617.898 50.52 615.378 52.92 612.978 54.12ZM610.458 80.88C614.418 73.44 618.138 68.16 621.618 64.92C624.378 62.76 626.418 61.68 627.498 61.68C628.218 61.68 628.578 62.16 628.578 63.12C628.578 64.44 627.618 66.24 625.698 68.76C621.498 74.4 616.458 78.48 610.458 80.88Z" fill="#3C1947"/>
<path d="M26.68 143.4C33.04 143.4 40.12 138.12 47.92 127.44C58.72 111.36 68.56 90.36 77.56 64.44L77.8 63.48C81.76 62.28 86.8 61.56 92.92 61.56C96.88 61.56 100.96 61.92 105.16 62.64C98.8 85.32 95.56 103.92 95.56 118.44C95.56 130.92 97.6 138.24 101.56 140.64C104.56 142.44 107.08 143.28 109.12 143.28C113.32 143.28 118.48 141.48 124.84 137.88C125.32 137.52 125.56 137.16 125.56 136.68C125.44 135.72 124.96 135.24 124.24 135.24L123.4 135.48C118.12 138.48 113.68 140.04 110.2 140.04C108.28 140.04 106.72 139.56 105.4 138.6C101.8 136.08 100 132.72 99.88 128.64C99.88 124.56 99.88 122.28 99.88 121.8C99.88 108.36 103.84 89.04 111.64 64.08C113.2 64.56 114.76 65.16 116.2 65.76L116.68 65.88C117.64 65.88 118.12 65.4 118.12 64.32C118.12 63.36 116.32 62.4 112.6 61.32C116.56 49.08 120.4 38.04 124.24 28.32C128.08 18.6 131.08 11.64 133.12 7.67999C133.36 7.07999 133.48 6.47999 133.48 5.99999C133.48 5.15999 133.24 4.43999 132.64 3.71999C131.44 2.39999 130.12 1.67999 128.56 1.67999C127.48 1.67999 126.52 2.15999 125.92 3.23999C123.64 7.67999 120.64 15.12 116.92 25.32C113.2 35.52 109.48 47.04 105.88 59.88C101.32 59.28 96.76 58.92 92.32 58.92C86.68 58.92 82.24 59.4 79 60.24C85.24 42.72 88.6 28.68 88.96 18C88.96 8.15999 86.92 2.87999 82.84 2.03999C82 1.79999 81.04 1.79999 80.08 1.79999C76.36 1.79999 71.8 3.23999 66.28 6.23999C59.44 9.83999 52 13.32 43.72 16.68C35.44 20.16 29.56 21.84 25.84 21.96C22.24 21.96 20.44 21.96 20.32 21.96C13.12 21.96 7.84001 18.72 4.36001 12.24C4.00001 11.64 3.64001 11.4 3.16001 11.28C2.56001 11.28 2.20001 11.4 1.96001 11.64C1.72001 11.88 1.60001 12.12 1.60001 12.48L1.72001 13.2C5.68001 22.56 9.76001 27.36 14.2 27.72C18.52 28.08 21.16 28.2 22.12 28.2C34.24 28.2 50.32 21.84 70.24 9.11999C75.16 6.11999 78.88 4.55999 81.28 4.55999C83.32 4.55999 84.4 6.35999 84.4 9.71999C84.4 18.48 79.12 36.72 68.44 64.44C58.24 69.72 48.64 77.4 39.76 87.48C33.04 95.04 27.64 102.84 23.44 110.64C19.24 118.8 17.08 125.64 17.08 131.16C17.08 132.6 17.2 134.04 17.56 135.36C18.88 140.76 22 143.4 26.68 143.4ZM24.88 139.68C21.52 139.68 19.72 136.8 19.72 131.28C19.72 126.12 21.76 119.64 25.84 111.96C30.04 104.4 35.32 96.84 41.92 89.4C48.4 81.96 55.6 75.6 63.64 70.44C64.72 69.72 65.8 69.12 66.88 68.52C66.64 69 66.4 69.6 66.16 70.32C58.12 91.68 49.96 109.2 41.92 123.12C35.68 133.08 31.36 138.36 29.08 138.84C26.8 139.32 25.48 139.68 24.88 139.68Z" stroke="#3C1947" stroke-width="2" mask="url(#path-1-outside-1)"/>
<path d="M130.158 102.84C135.798 102.84 141.918 98.64 148.278 90.12C149.718 88.32 151.998 84.96 155.118 80.28L155.238 79.68C155.238 78.84 154.758 78.36 153.678 78.36C153.198 78.36 152.838 78.6 152.478 79.08C151.638 80.88 149.958 83.4 147.678 86.76C145.278 90.24 142.758 93.12 139.998 95.52C137.238 98.04 134.718 99.24 132.438 99.24C129.438 99 127.878 97.68 127.758 95.16V92.04C127.758 88.56 128.478 84.72 129.798 80.4C133.518 79.56 136.758 77.88 139.638 75.6C144.798 71.52 147.438 67.44 147.438 63.6C147.438 62.76 147.198 61.92 146.718 61.32C145.638 59.76 143.838 59.04 141.438 58.92C139.038 58.92 136.638 59.52 134.358 60.72C129.678 63.6 126.198 67.92 123.678 73.56C121.158 79.2 119.838 84.6 119.838 89.52C119.838 96.48 122.358 100.8 127.398 102.6C128.358 102.84 129.198 102.84 130.158 102.84ZM130.758 77.4C133.038 71.16 135.918 66.6 139.158 63.72C140.598 62.76 141.798 62.28 142.878 62.28C143.958 62.28 144.558 62.76 144.558 63.72C144.558 64.44 144.198 65.52 143.358 66.84C142.158 68.88 140.358 70.8 138.078 72.84C135.798 74.88 133.278 76.44 130.758 77.4Z" stroke="#3C1947" stroke-width="2" mask="url(#path-1-outside-1)"/>
<path d="M183.779 103.2C188.339 102.6 192.899 99.72 197.459 94.44C202.019 89.16 205.379 84.36 207.539 80.04L207.659 79.44C207.659 78.72 207.299 78.36 206.459 78.36C205.739 78.36 205.259 78.72 204.899 79.32C203.339 82.32 200.819 86.04 197.339 90.72C193.739 95.4 190.139 98.16 186.419 99.24C184.859 99.24 184.019 97.92 184.019 95.4C184.019 90.6 186.299 81.12 190.739 66.84L192.539 60.24C192.539 59.4 191.219 58.92 188.579 58.92C185.819 58.92 184.259 59.4 184.139 60.24C183.899 61.2 182.699 65.4 180.419 72.96V73.08C175.379 84 169.859 91.92 163.739 97.08C161.699 98.64 160.139 99.48 159.059 99.48C157.499 99.48 156.779 97.92 156.779 94.92C156.779 90 158.459 84.24 161.819 77.52C165.299 70.2 167.939 65.88 169.979 64.44C171.899 63.12 173.339 62.4 174.179 62.4C175.979 62.4 176.819 63.6 176.819 66.12C176.819 69 175.859 71.64 173.819 74.04C173.339 74.64 172.859 75.12 172.379 75.48C171.899 75.84 171.659 76.2 171.659 76.56C171.659 77.64 172.019 78.24 172.859 78.24C173.579 78.24 174.539 77.4 175.859 75.84C178.379 72.96 179.579 69.84 179.579 66.36C179.579 64.08 178.859 62.28 177.299 60.96C175.739 59.64 173.939 59.04 171.899 59.04C165.059 59.04 159.179 64.08 154.139 74.04C151.739 79.68 150.539 85.32 150.539 90.96C150.899 99.12 153.419 103.2 157.979 103.2C160.259 103.2 162.899 102 165.899 99.48C170.099 95.52 174.059 90.48 177.539 84.36C176.819 87.48 176.459 90.36 176.459 92.88C176.459 94.56 176.579 96.12 176.939 97.56C177.539 101.16 179.819 103.08 183.779 103.2Z" stroke="#3C1947" stroke-width="2" mask="url(#path-1-outside-1)"/>
<path d="M263.636 103.2C272.396 103.08 283.676 87.72 287.516 80.04L287.636 79.44C287.636 78.72 287.036 78.36 286.436 78.36C285.836 78.36 285.236 78.6 284.876 79.32C282.116 84.48 273.476 97.92 266.276 99.24H265.796C264.356 99.24 263.876 98.04 263.876 95.88C263.876 89.76 268.196 76.68 268.196 67.8C268.196 63.36 266.996 59.88 263.636 59.16L262.436 59.04C253.196 59.04 241.796 81.36 238.436 87.72C239.756 79.32 241.796 68.4 244.316 57.72C251.396 55.32 258.716 45.24 262.076 35.88C263.396 32.16 263.996 28.92 263.996 26.28C263.996 21.12 261.716 18.24 258.236 18.24C254.036 18.24 248.036 22.92 243.356 33.48C239.996 40.92 237.716 49.2 236.636 53.88C231.836 52.2 227.276 48.48 222.596 43.92L228.836 19.68V19.56C228.836 18.6 227.036 18.24 224.996 18.24C222.956 18.24 220.676 18.72 220.436 19.56C220.196 20.76 218.396 27.84 215.996 36.84L213.356 33.84C202.796 21.96 191.396 9.35999 176.876 7.67999C175.916 7.55999 174.956 7.55999 173.996 7.55999C169.196 7.55999 164.636 8.75999 160.796 10.8C155.636 13.44 151.556 17.52 149.156 22.32C147.116 26.16 146.276 29.88 146.276 33.24C146.276 35.76 146.756 38.04 147.596 40.08C148.796 43.08 150.836 45.6 153.356 47.52C155.876 49.32 158.996 50.52 162.116 50.88H163.556C167.636 50.88 171.956 49.56 175.676 46.44C176.156 46.08 176.276 45.72 176.276 45.24C176.276 44.64 175.676 44.04 174.956 44.04C174.596 44.04 174.356 44.16 173.996 44.4C170.996 46.92 167.396 48.12 164.156 48.12L162.716 48C159.956 47.76 157.436 46.8 155.276 45.12C152.996 43.56 151.316 41.4 150.236 38.76C149.516 36.96 149.036 35.04 149.036 32.88C149.036 29.88 149.876 26.76 151.556 23.4C153.716 19.2 157.316 15.6 161.876 13.2C165.356 11.4 169.316 10.44 173.396 10.44C174.356 10.44 175.316 10.44 176.276 10.56C189.836 12 200.876 24.36 211.196 35.88L215.156 40.32C210.956 56.28 205.676 76.56 204.476 81.96C203.636 85.92 202.916 89.88 202.916 93.36C202.916 99 204.716 103.2 210.116 103.2H210.236C216.836 103.08 224.876 94.2 230.156 86.52C228.956 93.48 228.236 98.64 227.876 100.68V100.92C227.876 102.24 230.636 103.2 233.036 103.2C234.716 103.2 236.036 102.84 236.276 101.76C236.396 100.68 236.636 98.76 237.116 96.12C241.556 86.52 254.036 63.12 259.556 63.12C259.916 63.12 260.276 63.12 260.516 63.36C260.996 63.72 261.236 64.56 261.236 65.76C261.236 71.4 256.436 84.72 256.436 93.84C256.436 99.24 258.116 103.2 263.516 103.2H263.636ZM245.156 54.24C245.156 54.12 248.036 43.08 251.396 33.84C254.636 24.6 257.516 21 259.316 21C260.636 21 261.356 22.8 261.356 25.56C261.356 28.32 260.636 31.92 259.076 35.76C255.836 43.56 249.956 52.08 245.156 54.24ZM212.876 99.24H212.396C211.076 99.24 210.476 97.8 210.476 95.4C210.476 92.4 211.316 87.96 212.516 83.28L221.756 47.16C226.436 51.6 230.996 55.08 235.916 56.76L235.676 57.84C233.876 65.28 232.436 72.84 231.356 79.44C228.596 84.6 219.956 97.92 212.876 99.24Z" stroke="#3C1947" stroke-width="2" mask="url(#path-1-outside-1)"/>
<path d="M293.635 102.84C299.275 102.84 305.395 98.64 311.755 90.12C313.195 88.32 315.475 84.96 318.595 80.28L318.715 79.68C318.715 78.84 318.235 78.36 317.155 78.36C316.675 78.36 316.315 78.6 315.955 79.08C315.115 80.88 313.435 83.4 311.155 86.76C308.755 90.24 306.235 93.12 303.475 95.52C300.715 98.04 298.195 99.24 295.915 99.24C292.915 99 291.355 97.68 291.235 95.16V92.04C291.235 88.56 291.955 84.72 293.275 80.4C296.995 79.56 300.235 77.88 303.115 75.6C308.275 71.52 310.915 67.44 310.915 63.6C310.915 62.76 310.675 61.92 310.195 61.32C309.115 59.76 307.315 59.04 304.915 58.92C302.515 58.92 300.115 59.52 297.835 60.72C293.155 63.6 289.675 67.92 287.155 73.56C284.635 79.2 283.315 84.6 283.315 89.52C283.315 96.48 285.835 100.8 290.875 102.6C291.835 102.84 292.675 102.84 293.635 102.84ZM294.235 77.4C296.515 71.16 299.395 66.6 302.635 63.72C304.075 62.76 305.275 62.28 306.355 62.28C307.435 62.28 308.035 62.76 308.035 63.72C308.035 64.44 307.675 65.52 306.835 66.84C305.635 68.88 303.835 70.8 301.555 72.84C299.275 74.88 296.755 76.44 294.235 77.4Z" stroke="#3C1947" stroke-width="2" mask="url(#path-1-outside-1)"/>
<path d="M322.047 128.88C325.527 128.88 329.127 126.36 332.967 122.16C343.767 110.16 357.807 85.92 360.447 79.8V79.44C360.447 78.72 359.487 78.24 358.767 78.24C358.287 78.24 357.927 78.36 357.807 78.72C356.367 82.32 340.767 109.8 330.927 120.6C328.167 123.6 326.007 125.04 324.687 125.04C323.967 125.04 323.367 124.68 323.127 123.96C323.007 123.6 322.887 123.12 322.887 122.52C322.887 115.68 333.327 95.52 334.647 88.68C334.887 87.72 334.887 86.88 334.887 86.16C334.887 79.44 328.287 78.36 322.887 76.44C326.607 73.08 332.247 63.36 332.247 57C332.247 54.6 331.527 52.68 329.487 51.84C328.887 51.6 328.287 51.48 327.567 51.48C321.207 51.48 312.447 62.76 312.447 71.4C312.447 74.88 313.767 77.88 317.127 79.68C321.567 82.2 325.647 83.88 325.647 87.48V88.2C324.447 94.32 314.847 110.4 314.847 120.48C314.847 123.6 315.687 126.24 318.207 127.68C319.527 128.4 320.727 128.88 322.047 128.88ZM320.007 75.24C317.967 73.92 317.247 71.88 317.247 69.6C317.247 63.24 323.487 54.96 326.967 54.96C327.207 54.96 327.447 54.96 327.687 55.08C328.767 55.56 329.247 56.64 329.247 58.08C329.247 63.12 323.487 72.48 320.007 75.24Z" stroke="#3C1947" stroke-width="2" mask="url(#path-1-outside-1)"/>
<path d="M450.297 144.12C454.977 144.12 460.137 143.16 466.017 141.12C474.057 137.88 481.377 133.44 488.097 127.68C494.697 122.04 499.977 116.4 503.817 111C519.177 117.6 531.297 120.84 540.177 120.84C543.417 120.84 546.417 120.48 549.297 119.76C555.657 118.2 560.817 113.76 564.897 106.68L565.017 106.44C565.017 106.2 564.777 105.84 564.417 105.48C564.057 105.12 563.577 104.88 562.857 104.88C562.617 104.88 562.497 105 562.377 105.24C558.657 111.6 554.697 115.32 550.497 116.4C546.177 117.48 542.577 117.96 539.697 117.96C531.417 117.96 520.017 114.84 505.497 108.72C508.737 103.8 513.057 96.24 518.337 86.16C523.497 76.2 527.697 66.36 530.697 56.88C533.817 47.4 535.377 39.48 535.377 33C535.377 30.36 535.137 27.72 534.657 25.32C533.217 17.04 527.457 12.24 517.497 10.92H516.297C512.457 10.92 508.377 11.88 503.937 13.8C493.497 18.24 483.777 27.24 474.537 40.68C477.057 31.2 478.377 23.52 478.377 17.64C478.377 8.16 476.337 2.87999 472.257 2.03999C471.417 1.79999 470.457 1.79999 469.497 1.79999C465.777 1.79999 461.217 3.23999 455.697 6.23999C448.857 9.83999 441.417 13.32 433.137 16.68C424.857 20.16 418.857 21.84 415.137 21.96C411.537 21.96 409.737 21.96 409.617 21.96C402.537 21.96 397.257 18.72 393.777 12.24C393.417 11.64 393.057 11.4 392.577 11.28C391.977 11.28 391.617 11.4 391.377 11.64C391.017 12 390.897 12.24 390.897 12.6L391.017 13.2C394.977 22.56 399.057 27.36 403.497 27.72C407.817 28.08 410.457 28.2 411.417 28.2C423.657 28.2 439.737 21.84 459.657 9.11999C464.577 6.11999 468.297 4.55999 470.697 4.55999C472.737 4.55999 473.817 6.35999 473.817 9.71999C473.817 15.84 471.177 26.64 465.897 42.12C460.257 58.8 454.737 73.32 449.337 85.8C448.977 86.64 448.377 87.84 447.777 89.4C438.297 90.24 431.937 93.48 428.697 99.12C425.457 104.88 423.897 110.28 423.897 115.56C423.897 117.84 424.137 120.12 424.617 122.52C426.297 130.44 429.777 135.96 435.057 139.2C440.337 142.44 445.377 144.12 450.297 144.12ZM448.257 141C445.017 141 442.017 140.28 439.497 138.84C433.377 135.48 429.777 131.4 428.577 126.6C427.377 121.8 426.777 118.2 426.777 115.68C426.777 111.48 427.737 107.4 429.537 103.44C432.537 97.2 438.297 93.48 446.577 92.4C445.017 96.12 444.297 98.28 444.297 98.88C444.297 99.72 444.657 100.44 445.497 101.04C446.577 101.88 447.777 102.24 449.097 102.24C450.777 102.24 451.857 101.76 452.337 100.8C454.257 95.88 455.337 93.24 455.577 92.76C463.857 94.2 475.977 98.64 492.057 105.84L495.657 107.4C485.817 120.96 475.017 130.8 463.377 137.04C457.737 139.68 452.697 141 448.257 141ZM497.217 105.12C488.817 101.4 481.137 98.16 474.057 95.28C467.937 92.88 462.057 91.08 456.657 90C457.497 88.44 459.657 83.04 463.257 74.04C465.777 67.92 468.297 60.96 470.817 53.4C475.377 43.92 480.777 36.12 486.897 29.76C493.017 23.52 499.137 19.08 505.257 16.44C509.217 14.64 512.937 13.8 516.417 13.8C523.017 13.92 526.737 16.08 527.457 20.04C528.057 23.64 528.417 26.4 528.417 28.44C528.417 32.76 527.577 37.8 526.017 43.32C523.737 51.48 520.737 59.76 516.897 68.28C513.057 76.8 509.337 84.48 505.617 91.2C501.897 97.92 499.017 102.6 497.217 105.12Z" stroke="#3C1947" stroke-width="2" mask="url(#path-1-outside-1)"/>
<path d="M546.793 103.2C551.353 102.6 555.913 99.72 560.473 94.44C565.033 89.16 568.393 84.36 570.553 80.04L570.673 79.44C570.673 78.72 570.313 78.36 569.473 78.36C568.873 78.36 568.273 78.72 567.913 79.32C566.353 82.32 563.833 86.04 560.353 90.72C556.753 95.4 553.033 98.16 549.313 99.24C547.873 99.24 547.033 97.92 547.033 95.4C547.033 90.48 549.313 81 553.753 66.84C554.953 62.76 555.553 60.6 555.553 60.24C555.553 59.4 554.233 58.92 551.593 58.92C548.953 58.92 547.513 59.4 547.153 60.24C546.793 61.8 546.193 64.2 545.113 67.32C541.393 78.84 539.593 87.36 539.593 92.88C539.593 94.32 539.713 95.64 539.833 96.84C540.313 100.92 542.593 103.08 546.793 103.2ZM553.753 54.12C555.793 54.12 557.233 52.68 558.073 49.92C558.313 49.2 558.433 48.48 558.433 47.88C558.433 45.36 557.353 43.92 555.313 43.68C553.273 43.68 551.833 45.12 550.873 47.88C550.633 48.6 550.633 49.32 550.633 49.92C550.633 52.08 551.353 53.52 552.913 54L553.753 54.12Z" stroke="#3C1947" stroke-width="2" mask="url(#path-1-outside-1)"/>
<path d="M576.643 102.84C582.403 102.84 588.403 98.64 594.763 90.12C596.323 88.08 598.603 84.84 601.603 80.28L601.723 79.56C601.723 78.72 601.243 78.36 600.163 78.36C599.683 78.36 599.323 78.6 599.083 79.08C598.123 80.88 596.443 83.4 594.163 86.76C591.763 90.24 589.243 93.12 586.483 95.52C583.723 98.04 581.203 99.24 578.923 99.24C575.803 99.24 574.243 96.96 574.243 92.52C574.243 88.32 575.083 83.88 576.643 79.08C578.323 74.28 580.363 70.08 582.883 66.6C585.403 63.12 587.923 61.44 590.563 61.44C591.763 61.56 592.483 62.16 592.603 63C592.723 63.96 592.843 64.68 592.843 65.04C592.843 68.4 591.403 71.28 588.523 73.68C588.043 74.04 587.803 74.52 587.803 74.88C587.803 75.96 588.163 76.44 588.883 76.44C589.603 76.44 590.683 75.6 592.003 74.04C594.523 71.16 595.723 68.16 595.723 65.04C595.723 60.36 592.963 58.08 587.323 58.08C583.843 58.08 580.723 59.52 577.723 62.28C573.763 66 570.883 70.32 569.083 75.48C567.283 80.64 566.323 85.32 566.323 89.28C566.323 96.48 568.843 100.92 573.883 102.6C574.723 102.72 575.683 102.84 576.643 102.84Z" stroke="#3C1947" stroke-width="2" mask="url(#path-1-outside-1)"/>
<path d="M617.778 103.32C621.618 103.32 626.658 100.2 632.538 93.84C636.738 89.04 639.978 84.48 642.378 80.16L642.498 79.8C642.498 78.84 641.898 78.36 640.698 78.36C640.458 78.36 640.098 78.48 639.858 78.84C636.978 83.64 633.618 87.96 630.018 91.8C626.898 95.04 624.258 96.6 622.098 96.6C618.738 96.6 615.738 92.76 613.338 84.96C615.378 84.12 618.018 82.44 621.258 80.16C629.178 74.76 633.138 69.6 633.138 64.92C632.778 61.44 631.818 59.64 630.258 59.28C628.818 59.04 627.858 58.92 627.498 58.92C625.218 58.92 622.578 60.24 619.698 62.76C614.778 67.56 610.698 73.32 607.458 80.04C608.778 72.96 610.218 65.52 612.018 57.72C615.618 56.4 619.098 53.64 622.338 49.44C625.578 45.24 628.098 40.8 629.898 35.88C631.218 32.04 631.818 28.8 631.818 26.16C631.818 24.12 631.458 22.32 630.618 21C629.538 19.08 627.978 18.24 626.178 18.24C620.898 18.24 615.858 23.28 611.058 33.48C607.818 41.28 605.418 48.36 604.098 54.96C601.578 54.24 599.058 52.56 596.418 49.8C596.058 49.44 595.578 49.2 595.218 49.2C594.258 49.2 593.658 49.68 593.658 50.52C593.658 50.88 593.898 51.24 594.138 51.6C597.378 54.84 600.378 57 603.378 57.84C601.218 68.04 598.818 81 596.178 96.84L595.698 100.68C595.698 101.52 596.298 102.12 597.378 102.6C598.578 102.96 599.778 103.2 600.978 103.2C602.658 103.2 603.738 102.72 603.978 101.76L605.418 92.4C605.778 91.32 606.258 90.12 606.858 88.68C608.058 96 609.978 100.2 612.498 101.52C615.018 102.72 616.818 103.32 617.778 103.32ZM612.978 54.12C613.818 49.68 615.858 42.96 619.098 33.84C621.858 26.64 623.778 22.68 624.858 22.08C625.938 21.36 626.778 21.12 627.138 21.12C628.458 21.12 629.178 22.56 629.178 25.68C629.178 28.44 628.338 31.8 626.658 35.76C625.098 39.84 622.938 43.56 620.418 47.04C617.898 50.52 615.378 52.92 612.978 54.12ZM610.458 80.88C614.418 73.44 618.138 68.16 621.618 64.92C624.378 62.76 626.418 61.68 627.498 61.68C628.218 61.68 628.578 62.16 628.578 63.12C628.578 64.44 627.618 66.24 625.698 68.76C621.498 74.4 616.458 78.48 610.458 80.88Z" stroke="#3C1947" stroke-width="2" mask="url(#path-1-outside-1)"/>
</svg>
