<?xml version="1.0" standalone="no"?>
<svg version="1.1" id="downloadSvg" xmlns="http://www.w3.org/2000/svg" xmlns:xlink="http://www.w3.org/1999/xlink" x="0px" y="0px" viewBox="0 0 1200 1200" enable-background="new 0 0 1200 1200" xml:space="preserve" height="512" width="512">
<g>
	<path fill="#533D5E" d="M1051.849,535.686c0,0,23.556-53.651,98.151-77.21c-111.748-17.531-234.477,9.876-271.491,19.268&#10;&#9;&#9;c0.033,0.203,0.02,0.12,0.053,0.324c10.314-0.375,20.7,0.431,31.055,0.855c10.85,0.445,21.702,0.834,32.556,1.168&#10;&#9;&#9;c12.048,0.37,24.098,0.672,36.149,0.906c3.878,0.075,12.22-0.248,12.11,5.428c-0.151,7.83-0.312,15.592-0.242,23.461&#10;&#9;&#9;c0.102,11.729,0.182,23.458,0.24,35.188c0.146,29.458,0.176,58.919-0.113,88.377c-0.004,0.367,0.18,3.388-0.036,3.486&#10;&#9;&#9;c22.454-9.76,84.655-34.495,144.012-26.652C1122.518,577.565,1051.849,535.686,1051.849,535.686z" style="fill: rgb(150, 104, 172);"/>
	<path fill="#533D5E" d="M258.46,699.107c-1.827-0.049-4.047-0.698-5.773-0.756c-18.875-0.64-37.521-0.692-56.329-2.921&#10;&#9;&#9;c-5.275-0.625-4.511-3.663-4.635-7.995c-0.443-15.405-0.709-30.814-0.939-46.223c-0.3-20.113-0.6-40.226-0.9-60.339&#10;&#9;&#9;c-0.119-7.969-0.238-15.938-0.356-23.907C147.445,563.684,91.061,574.351,50,586.297c57.58-1.309,99.46,56.265,99.46,56.265&#10;&#9;&#9;s-32.716,49.732-60.198,104.693c27.908-15.735,58.321-26.727,89.336-34.516c26.405-6.63,52.963-10.092,79.888-13.547&#10;&#9;&#9;C258.477,699.164,258.469,699.135,258.46,699.107z" style="fill: rgb(150, 104, 172);"/>
	<path fill="#533D5E" d="M300.247,665.355c34.536-4.934,73.258-6.986,108.165-6.89c4.013,0.011,8.027-0.048,12.04-0.07&#10;&#9;&#9;c8.332,0.18,16.586,0.469,24.876,0.751c16.561,0.582,33.117,1.258,49.671,2.034c16.554,0.777,33.105,1.65,49.652,2.687&#10;&#9;&#9;c4.138,0.237,8.271,0.568,12.407,0.852c4.206,0.288,8.274,0.805,12.438,1.219l24.706,2.558c16.471,1.662,32.945,3.283,49.43,4.786&#10;&#9;&#9;l24.731,2.208c8.244,0.732,16.492,1.411,24.742,2.062c8.247,0.686,16.499,1.299,24.753,1.891c8.251,0.64,16.508,1.147,24.763,1.701&#10;&#9;&#9;c8.253,0.601,16.511,1.064,24.77,1.526c8.258,0.523,16.52,0.822,24.782,1.178l6.197,0.262l6.197,0.143l12.394,0.282&#10;&#9;&#9;c4.132,0.097,8.257-0.007,12.386-0.001c4.127-0.033,8.263,0.03,12.372-0.235c8.193-0.401,16.556-0.704,24.768-1.251&#10;&#9;&#9;c8.238-0.564,16.463-1.332,24.673-2.25c16.408-1.93,32.741-4.628,48.85-8.364c15.198-3.557,30.225-7.975,44.781-13.7&#10;&#9;&#9;c1.287-67.577-0.113-171.76-0.113-171.76s-124.873,24.674-295.982,14.239c-157.761-9.619-334.021-65.478-491.225,16.365&#10;&#9;&#9;l-3.672,2.054c0,0-0.177,3.057-0.183,3.161c-0.383,6.624,0.2,13.449,0.299,20.078c0.234,15.728,0.469,31.456,0.703,47.184&#10;&#9;&#9;c0.268,18.008,0.537,36.017,0.805,54.025c0.202,13.532,0.404,27.065,0.605,40.597c0.032,2.152,0.096,4.304,0.119,6.457&#10;&#9;&#9;C196.16,692.321,239.995,673.962,300.247,665.355z" style="fill: rgb(150, 104, 172);"/>
	<path fill="#533D5E" d="M360.34,664.214c-2.446-0.502-4.983-0.369-7.48-0.192c-47.382,3.359-94.358,12.44-139.594,26.985&#10;&#9;&#9;c7.911,0.2,15.818,0.473,23.726,0.754c18.2,0.648,36.4,1.296,54.6,1.945c19.857,0.707,39.715,1.414,59.572,2.122&#10;&#9;&#9;c3.707,0.132,7.415,0.249,11.124,0.364C361.931,685.524,361.018,674.871,360.34,664.214z" style="fill: rgb(150, 104, 172);"/>
	<path fill="#533D5E" d="M969.972,484.548c-0.826-0.131-1.661-0.213-2.49-0.246c-21.548-0.856-43.113-1.399-64.666-2.102&#10;&#9;&#9;c-11.417-0.372-22.86-0.476-34.289-0.67c-0.437-0.007-0.788,0.331-0.815,0.767l-0.81,13.182c-0.03,0.489,0.37,0.894,0.858,0.866&#10;&#9;&#9;c15.725-0.91,31.46-2.345,47.135-3.863c18.51-1.793,50.424-4.592,55.637-6.654C971.331,485.513,972.174,484.896,969.972,484.548z" style="fill: rgb(150, 104, 172);"/>
</g>
</svg>